<svg xmlns="http://www.w3.org/2000/svg" width="136" height="139" viewBox="0 0 136 139">
  <defs>
    <style>
      .cls-1 {
        fill: #f5c847;
        fill-rule: evenodd;
      }
    </style>
  </defs>
  <path class="cls-1" d="M202.062,2465.87H244.9l-0.346-11.05a29.736,29.736,0,0,1,5.169-17.11c3.235-4.73,9.311-7.13,18.058-7.13,7.437,0,13.034,1.99,16.637,5.9,3.7,4.03,5.5,9.24,5.5,15.93a26.094,26.094,0,0,1-4.6,15.48,105.54,105.54,0,0,1-14.522,15.67,127.844,127.844,0,0,0-14.684,15.78,27.2,27.2,0,0,0-5.08,16.58v18.07h41.645v-11.01a11.378,11.378,0,0,1,3.074-7.94,119.267,119.267,0,0,1,11.536-10.59,155.816,155.816,0,0,0,14.908-13.09,55,55,0,0,0,10.38-15.73c2.936-6.42,4.424-14.05,4.424-22.67a57.911,57.911,0,0,0-7.506-28.83,55.092,55.092,0,0,0-21.984-21.26c-9.555-5.23-21-7.88-34.023-7.88h-5.982c-12.84,0-24.469,2.79-34.565,8.29a61.881,61.881,0,0,0-23.572,21.86A53.509,53.509,0,0,0,201,2453.5c0,1.92.271,5.28,0.831,10.3Zm11.281-38.29a57.244,57.244,0,0,1,21.834-20.21c9.4-5.13,20.278-7.73,32.328-7.73h5.982c12.227,0,22.919,2.46,31.778,7.32a50.452,50.452,0,0,1,20.165,19.45,53.366,53.366,0,0,1,6.9,26.55c0,7.95-1.346,14.93-4,20.74a50.229,50.229,0,0,1-9.473,14.4,152.041,152.041,0,0,1-14.506,12.73,122.512,122.512,0,0,0-12.068,11.09,16.05,16.05,0,0,0-4.272,11.06v6.35H255.7v-13.41a22.339,22.339,0,0,1,4.166-13.81,123.515,123.515,0,0,1,14.111-15.14,110.48,110.48,0,0,0,15.145-16.38,30.653,30.653,0,0,0,5.461-18.18c0-7.8-2.265-14.22-6.733-19.08-4.523-4.91-11.277-7.4-20.073-7.4-10.382,0-17.755,3.08-21.911,9.15a34.339,34.339,0,0,0-5.982,19.77l0.2,6.36H206.244c-0.384-3.66-.578-6.25-0.578-7.71A48.957,48.957,0,0,1,213.343,2427.58Z" transform="translate(-201 -2395)"/>
</svg>
